<svg width="14" height="14" viewBox="0 0 14 14" fill="none" xmlns="http://www.w3.org/2000/svg">
<path d="M11.2426 9.12076L10.1821 8.06026L11.2426 6.99976C11.5212 6.72118 11.7421 6.39045 11.8929 6.02646C12.0437 5.66248 12.1213 5.27236 12.1213 4.87838C12.1213 4.48441 12.0437 4.09429 11.8929 3.7303C11.7421 3.36632 11.5212 3.03559 11.2426 2.75701C10.964 2.47843 10.6333 2.25744 10.2693 2.10667C9.9053 1.95591 9.51518 1.87831 9.1212 1.87831C8.72723 1.87831 8.33711 1.95591 7.97312 2.10667C7.60914 2.25744 7.27841 2.47843 6.99983 2.75701L5.93933 3.81751L4.87883 2.75701L5.93933 1.69651C6.78556 0.863948 7.9265 0.3995 9.11361 0.404334C10.3007 0.409168 11.4378 0.882891 12.2773 1.72232C13.1167 2.56174 13.5904 3.69886 13.5953 4.88597C13.6001 6.07309 13.1356 7.21403 12.3031 8.06026L11.2426 9.12076ZM9.12083 11.2425L8.06033 12.303C7.64372 12.7265 7.14739 13.0632 6.59998 13.2939C6.05256 13.5246 5.46489 13.6446 4.87086 13.647C4.27684 13.6494 3.68821 13.5342 3.13893 13.308C2.58966 13.0818 2.0906 12.7491 1.67056 12.329C1.25051 11.909 0.917792 11.4099 0.691584 10.8607C0.465375 10.3114 0.350158 9.72275 0.352576 9.12872C0.354995 8.5347 0.475003 7.94703 0.705677 7.39961C0.936351 6.85219 1.27313 6.35587 1.69658 5.93926L2.75708 4.87876L3.81758 5.93926L2.75708 6.99976C2.47849 7.27834 2.25751 7.60907 2.10674 7.97305C1.95597 8.33704 1.87837 8.72716 1.87837 9.12113C1.87837 9.51511 1.95597 9.90523 2.10674 10.2692C2.25751 10.6332 2.47849 10.9639 2.75708 11.2425C3.03566 11.5211 3.36639 11.7421 3.73037 11.8928C4.09436 12.0436 4.48448 12.1212 4.87845 12.1212C5.27243 12.1212 5.66255 12.0436 6.02653 11.8928C6.39052 11.7421 6.72124 11.5211 6.99983 11.2425L8.06033 10.182L9.12083 11.2425ZM9.12083 3.81751L10.1821 4.87876L4.87883 10.1813L3.81758 9.12076L9.12083 3.81751Z" fill="#8D9499"/>
</svg>
