<svg width="14" height="14" viewBox="0 0 7 12" fill="none" xmlns="http://www.w3.org/2000/svg">
<path d="M3.36 2.992V0.877999H4.06V2.992H3.36ZM3.36 11.686V9.46H4.06V11.686H3.36ZM3.654 10.048C3.14067 10.048 2.688 9.99667 2.296 9.894C1.904 9.782 1.57733 9.628 1.316 9.432C1.05467 9.22667 0.854 8.98867 0.714 8.718C0.583333 8.438 0.518 8.13 0.518 7.794C0.518 7.74733 0.518 7.70533 0.518 7.668C0.527333 7.63067 0.532 7.598 0.532 7.57H1.974C1.974 7.598 1.974 7.626 1.974 7.654C1.974 7.67267 1.974 7.696 1.974 7.724C1.974 8.01333 2.05333 8.24667 2.212 8.424C2.37067 8.592 2.58067 8.71333 2.842 8.788C3.11267 8.85333 3.40667 8.886 3.724 8.886C4.004 8.886 4.26067 8.85333 4.494 8.788C4.73667 8.72267 4.93267 8.62 5.082 8.48C5.24067 8.33067 5.32 8.14867 5.32 7.934C5.32 7.654 5.222 7.43933 5.026 7.29C4.83 7.14067 4.57333 7.024 4.256 6.94C3.93867 6.84667 3.60733 6.75333 3.262 6.66C2.954 6.576 2.646 6.48267 2.338 6.38C2.03933 6.27733 1.76867 6.15133 1.526 6.002C1.28333 5.84333 1.08733 5.64267 0.938 5.4C0.788667 5.148 0.714 4.84 0.714 4.476C0.714 4.13067 0.788667 3.82733 0.938 3.566C1.08733 3.30467 1.29267 3.08533 1.554 2.908C1.82467 2.73067 2.142 2.59533 2.506 2.502C2.87933 2.40867 3.28533 2.362 3.724 2.362C4.18133 2.362 4.58733 2.41333 4.942 2.516C5.29667 2.60933 5.59533 2.74933 5.838 2.936C6.09 3.11333 6.28133 3.32333 6.412 3.566C6.54267 3.80867 6.608 4.07 6.608 4.35C6.608 4.41533 6.60333 4.476 6.594 4.532C6.594 4.588 6.594 4.62533 6.594 4.644H5.166V4.518C5.166 4.33133 5.11467 4.16333 5.012 4.014C4.90933 3.86467 4.746 3.74333 4.522 3.65C4.30733 3.55667 4.018 3.51 3.654 3.51C3.41133 3.51 3.19667 3.53333 3.01 3.58C2.82333 3.61733 2.66933 3.678 2.548 3.762C2.42667 3.83667 2.33333 3.92533 2.268 4.028C2.212 4.12133 2.184 4.23333 2.184 4.364C2.184 4.57867 2.25867 4.74667 2.408 4.868C2.56667 4.98 2.772 5.078 3.024 5.162C3.276 5.23667 3.54667 5.32067 3.836 5.414C4.172 5.50733 4.51267 5.60533 4.858 5.708C5.20333 5.80133 5.52067 5.92267 5.81 6.072C6.10867 6.22133 6.34667 6.43133 6.524 6.702C6.71067 6.96333 6.804 7.30867 6.804 7.738C6.804 8.14867 6.72467 8.50333 6.566 8.802C6.40733 9.09133 6.18333 9.32933 5.894 9.516C5.614 9.70267 5.28267 9.838 4.9 9.922C4.51733 10.006 4.102 10.048 3.654 10.048Z" fill="#121010"/>
</svg>
