<svg width="15" height="14" viewBox="0 0 15 14" fill="none" xmlns="http://www.w3.org/2000/svg">
<g clip-path="url(#clip0_17762_41)">
<path d="M3.93172 10.8809C3.75672 10.7642 3.60622 10.6155 3.43005 10.4049C3.33861 10.293 3.248 10.1804 3.15822 10.0672C2.88813 9.73174 2.7178 9.57716 2.54163 9.51358C2.39598 9.46128 2.27706 9.35327 2.21103 9.2133C2.14501 9.07333 2.1373 8.91286 2.18959 8.7672C2.24188 8.62154 2.3499 8.50262 2.48987 8.4366C2.62984 8.37058 2.79031 8.36287 2.93597 8.41516C3.37463 8.57266 3.67155 8.84391 4.07172 9.34149C4.01688 9.27324 4.27005 9.59058 4.3243 9.65591C4.43513 9.78833 4.5168 9.86883 4.58097 9.91141C4.69997 9.99133 4.92338 10.0257 5.2518 9.99308C5.26522 9.77024 5.30663 9.55383 5.36963 9.35433C3.6383 8.93083 2.6583 7.81433 2.6583 5.62333C2.6583 4.89999 2.87413 4.24899 3.27547 3.70299C3.1483 3.18149 3.16755 2.55091 3.45163 1.84099C3.48387 1.76069 3.53358 1.68856 3.59714 1.62984C3.6607 1.57112 3.73653 1.52728 3.81913 1.50149C3.86638 1.48749 3.89322 1.48108 3.94047 1.47408C4.40888 1.40233 5.07038 1.57324 5.93255 2.11341C6.44635 1.99329 6.97232 1.933 7.49997 1.93374C8.03197 1.93374 8.56047 1.99441 9.06563 2.11341C9.92722 1.56916 10.5899 1.39824 11.0618 1.47408C11.1114 1.48166 11.1534 1.49158 11.189 1.50324C11.27 1.52995 11.3441 1.57408 11.4062 1.63253C11.4683 1.69099 11.5168 1.76235 11.5483 1.84158C11.8324 2.55091 11.8516 3.18149 11.7245 3.70241C12.1276 4.24841 12.3416 4.89533 12.3416 5.62333C12.3416 7.81491 11.3651 8.92791 9.6338 9.35199C9.70672 9.59408 9.74463 9.86474 9.74463 10.157C9.74469 10.6851 9.74235 11.2132 9.73763 11.7413C9.86864 11.7699 9.9858 11.8427 10.0694 11.9476C10.153 12.0524 10.1979 12.1828 10.1966 12.3169C10.1953 12.451 10.1479 12.5805 10.0622 12.6837C9.97663 12.7869 9.85808 12.8575 9.72655 12.8835C9.06213 13.0165 8.5698 12.5732 8.5698 11.9939L8.57097 11.7337L8.57388 11.3225C8.5768 10.9095 8.57797 10.542 8.57797 10.157C8.57797 9.75041 8.47122 9.48499 8.33005 9.36366C7.94447 9.03116 8.13988 8.39824 8.64505 8.34166C10.3758 8.14741 11.175 7.47716 11.175 5.62333C11.175 5.06624 10.993 4.60599 10.6424 4.22099C10.5685 4.14005 10.5189 4.03994 10.4993 3.93213C10.4797 3.82432 10.4909 3.71317 10.5316 3.61141C10.6284 3.36991 10.6698 3.05316 10.5876 2.66991L10.5817 2.67166C10.2953 2.75274 9.93422 2.92833 9.49788 3.22524C9.42752 3.27299 9.34758 3.30478 9.26364 3.31838C9.1797 3.33199 9.09381 3.32708 9.01197 3.30399C8.51958 3.16766 8.01088 3.09917 7.49997 3.10041C6.9808 3.10041 6.4663 3.16983 5.98797 3.30458C5.90643 3.32748 5.82088 3.33235 5.73727 3.31885C5.65366 3.30535 5.57399 3.27381 5.5038 3.22641C5.06513 2.93066 4.7023 2.75566 4.41413 2.67399C4.33013 3.05491 4.37155 3.37049 4.4678 3.61141C4.50852 3.71312 4.51978 3.82424 4.50028 3.93205C4.48078 4.03985 4.43132 4.13999 4.35755 4.22099C4.0093 4.60249 3.82497 5.07149 3.82497 5.62333C3.82497 7.47366 4.62472 8.14799 6.34613 8.34166C6.85072 8.39824 7.04672 9.02824 6.66347 9.36133C6.55147 9.45933 6.41322 9.78833 6.41322 10.157V11.9945C6.41322 12.5697 5.92613 13.0007 5.26988 12.8858C5.13675 12.8624 5.01586 12.7936 4.92789 12.6909C4.83991 12.5883 4.79031 12.4583 4.78755 12.3232C4.7848 12.188 4.82906 12.0561 4.91278 11.95C4.9965 11.8439 5.11448 11.7701 5.24655 11.7413V11.1638C4.71572 11.1994 4.27705 11.1125 3.93172 10.8809Z" fill="white"/>
</g>
<defs>
<clipPath id="clip0_17762_41">
<rect width="14" height="14" fill="white" transform="translate(0.5)"/>
</clipPath>
</defs>
</svg>
