<svg width="12" height="12" viewBox="0 0 12 12" fill="none" xmlns="http://www.w3.org/2000/svg">
<path d="M6.58341 8.91675V7.75008H5.41675V8.91675H6.58341Z" fill="#356E81"/>
<path fill-rule="evenodd" clip-rule="evenodd" d="M6.00008 0.166748C9.22008 0.166748 11.8334 2.78008 11.8334 6.00008C11.8334 9.22008 9.22008 11.8334 6.00008 11.8334C2.78008 11.8334 0.166748 9.22008 0.166748 6.00008C0.166748 2.78008 2.78008 0.166748 6.00008 0.166748ZM6.00008 10.6667C8.57841 10.6667 10.6667 8.57841 10.6667 6.00008C10.6667 3.42175 8.57841 1.33341 6.00008 1.33341C3.42175 1.33341 1.33341 3.42175 1.33341 6.00008C1.33341 8.57841 3.42175 10.6667 6.00008 10.6667Z" fill="#356E81"/>
<path d="M5.41675 6.87508H6.58341V3.08341H5.41675V6.87508Z" fill="#356E81"/>
</svg>
